# xmcd
#
# Track frame offsets:
#	150
#	20263
#	37510
#	76009
#	78176
#	103053
#	125030
#	146701
#	189159
#	233100
#	260894
#	292316
#
# Disc length: 4579 seconds
# Revision: 0
# Processed by: cddbd v1.5.2PL0 Copyright (c) Steve Scherf et al.
# Submitted via: dBpowerAMP V12.0
#
DISCID=9c11e10c
DTITLE=Chorlton Country Club - Live At The Dulcimer
DYEAR=2017
DGENRE=Country
TTITLE0=Angel From Montgomery
TTITLE1=Mama Tried
TTITLE2=A Change is Gonna Come
TTITLE3=Happy Birthday
TTITLE4=To Love Somebody
TTITLE5=Ophelia
TTITLE6=Ruby
TTITLE7=The Weight
TTITLE8=Steamroller Blues
TTITLE9=Up on Cripple Creek
TTITLE10=Kissing my Love (Feat Tbr)
TTITLE11=Folsom Prison Blues
EXTD=
EXTT0=
EXTT1=
EXTT2=
EXTT3=
EXTT4=
EXTT5=
EXTT6=
EXTT7=
EXTT8=
EXTT9=
EXTT10=
EXTT11=
PLAYORDER=
